<svg width="32" height="32" viewBox="0 0 32 32" fill="none" xmlns="http://www.w3.org/2000/svg">
<path fill-rule="evenodd" clip-rule="evenodd" d="M24.8853 20.0771C25.2057 19.9625 25.5578 19.9747 25.8695 20.1113C26.1811 20.2479 26.4288 20.4984 26.5617 20.8117C26.6947 21.1249 26.7028 21.4771 26.5845 21.7962C26.4662 22.1152 26.2303 22.377 25.9253 22.5278L25.7813 22.5891L19.9639 24.6665L25.7813 26.7438C26.1032 26.8569 26.3696 27.0892 26.5254 27.3927C26.6813 27.6963 26.7148 28.0481 26.6191 28.3756C26.5235 28.7032 26.3058 28.9816 26.0111 29.1535C25.7163 29.3254 25.3668 29.3778 25.0346 29.2998L24.8853 29.2558L15.9999 26.0825L7.11462 29.2558C6.79421 29.3704 6.44211 29.3582 6.13044 29.2216C5.81876 29.085 5.57109 28.8345 5.43815 28.5212C5.30522 28.208 5.29709 27.8558 5.41541 27.5367C5.53374 27.2177 5.76958 26.9559 6.07462 26.8051L6.21862 26.7438L12.0359 24.6665L6.21862 22.5891C5.89667 22.476 5.63035 22.2438 5.47448 21.9402C5.31862 21.6366 5.28508 21.2849 5.38076 20.9573C5.47645 20.6298 5.69408 20.3514 5.98884 20.1794C6.28361 20.0075 6.63307 19.9551 6.96528 20.0331L7.11462 20.0771L15.9999 23.2505L24.8853 20.0771ZM14.9733 3.85579L15.9159 3.24245L16.2093 3.06512C16.8626 2.69579 17.5826 2.45179 18.2053 2.99312C18.5786 3.31579 18.7026 3.77045 18.636 4.23312L18.5826 4.50645L18.5626 4.69312C18.5537 4.8069 18.5573 4.94334 18.5733 5.10245C18.688 6.13045 19.3879 6.86512 20.1133 7.53045L20.7226 8.08512L21.1786 8.51579C22.2613 9.57179 23.4559 10.9958 23.9586 13.0091C24.5639 15.4278 23.9666 17.5971 22.3826 19.1251C20.8546 20.6025 18.5613 21.3331 15.9999 21.3331C11.7746 21.3331 7.99995 18.5971 7.99995 13.9998C7.99995 10.4051 10.3759 7.56645 12.4559 5.74645C13.2536 5.06172 14.0954 4.43014 14.976 3.85579M16.2959 12.3518L15.9999 11.9998L15.7053 12.3518L15.3893 12.7531L15.1399 13.0891L14.8733 13.4678C14.1453 14.5331 13.3333 15.9958 13.3333 17.2225C13.3333 18.7558 14.5279 19.9998 15.9999 19.9998C17.4719 19.9998 18.6666 18.7558 18.6666 17.2225C18.6666 15.9958 17.8546 14.5331 17.1266 13.4678L16.86 13.0891L16.6106 12.7531L16.2959 12.3518Z" fill="black"/>
</svg>
