<svg width="34" height="34" viewBox="0 0 34 34" fill="none" xmlns="http://www.w3.org/2000/svg">
<path d="M20.1025 20.1024L8.50004 25.4999L13.8975 13.8974L25.5 8.49992M17 2.83325C15.1396 2.83325 13.2975 3.19968 11.5787 3.91163C9.85991 4.62357 8.29819 5.66708 6.98269 6.98257C4.32593 9.63934 2.83337 13.2427 2.83337 16.9999C2.83337 20.7572 4.32593 24.3605 6.98269 27.0173C8.29819 28.3328 9.85991 29.3763 11.5787 30.0882C13.2975 30.8002 15.1396 31.1666 17 31.1666C20.7573 31.1666 24.3606 29.674 27.0174 27.0173C29.6742 24.3605 31.1667 20.7572 31.1667 16.9999C31.1667 15.1395 30.8003 13.2973 30.0883 11.5786C29.3764 9.85979 28.3329 8.29807 27.0174 6.98257C25.7019 5.66708 24.1402 4.62357 22.4214 3.91163C20.7026 3.19968 18.8604 2.83325 17 2.83325ZM17 15.4416C16.5867 15.4416 16.1904 15.6058 15.8981 15.898C15.6059 16.1903 15.4417 16.5866 15.4417 16.9999C15.4417 17.4132 15.6059 17.8096 15.8981 18.1018C16.1904 18.3941 16.5867 18.5583 17 18.5583C17.4133 18.5583 17.8097 18.3941 18.1019 18.1018C18.3942 17.8096 18.5584 17.4132 18.5584 16.9999C18.5584 16.5866 18.3942 16.1903 18.1019 15.898C17.8097 15.6058 17.4133 15.4416 17 15.4416Z" fill="#4B66BC"/>
</svg>
