<svg width="32" height="32" viewBox="0 0 32 32" fill="none" xmlns="http://www.w3.org/2000/svg">
<path d="M13.3334 13.3332V6.6665C13.3334 6.31288 13.4739 5.97374 13.7239 5.7237C13.9739 5.47365 14.3131 5.33317 14.6667 5.33317H16L18.6667 2.6665H24L26.6667 5.33317H28C28.3537 5.33317 28.6928 5.47365 28.9429 5.7237C29.1929 5.97374 29.3334 6.31288 29.3334 6.6665V13.3332C29.3334 13.6868 29.1929 14.0259 28.9429 14.276C28.6928 14.526 28.3537 14.6665 28 14.6665H14.6667C14.3131 14.6665 13.9739 14.526 13.7239 14.276C13.4739 14.0259 13.3334 13.6868 13.3334 13.3332Z" stroke="black" stroke-width="2" stroke-linecap="round" stroke-linejoin="round"/>
<path d="M21.3333 10.6667C22.0697 10.6667 22.6667 10.0697 22.6667 9.33333C22.6667 8.59695 22.0697 8 21.3333 8C20.597 8 20 8.59695 20 9.33333C20 10.0697 20.597 10.6667 21.3333 10.6667Z" stroke="black" stroke-width="2" stroke-linecap="round" stroke-linejoin="round"/>
<path fill-rule="evenodd" clip-rule="evenodd" d="M9.33335 2.6665H6.66669C5.60582 2.6665 4.58841 3.08793 3.83826 3.83808C3.08811 4.58822 2.66669 5.60564 2.66669 6.6665V20.6665C2.66669 20.7821 2.68091 20.8932 2.70935 20.9998C2.68113 21.1087 2.66679 21.2207 2.66669 21.3332V25.3332C2.66669 26.394 3.08811 27.4115 3.83826 28.1616C4.58841 28.9117 5.60582 29.3332 6.66669 29.3332H25.3334C26.3942 29.3332 27.4116 28.9117 28.1618 28.1616C28.9119 27.4115 29.3334 26.394 29.3334 25.3332V18.6665H15.1134C15.8694 18.9945 16.656 19.3918 17.4347 19.8598C19.3 20.9798 21.196 22.5532 22.472 24.6372C22.5634 24.7865 22.6245 24.9524 22.6518 25.1254C22.6791 25.2984 22.672 25.475 22.631 25.6452C22.5901 25.8155 22.516 25.976 22.4129 26.1176C22.3099 26.2592 22.18 26.3791 22.0307 26.4705C21.8813 26.5619 21.7154 26.623 21.5425 26.6503C21.3695 26.6776 21.1929 26.6705 21.0226 26.6295C20.8524 26.5885 20.6919 26.5144 20.5503 26.4114C20.4087 26.3084 20.2888 26.1785 20.1974 26.0292C19.216 24.4252 17.6934 23.1252 16.0614 22.1452C14.432 21.1665 12.7747 20.5558 11.6254 20.2892C10.0062 19.9199 8.3485 19.7471 6.68802 19.7745H6.65869C6.19469 19.7816 5.75291 19.8016 5.33335 19.8345V6.6665C5.33335 6.31288 5.47383 5.97374 5.72388 5.7237C5.97393 5.47365 6.31306 5.33317 6.66669 5.33317H9.33335V2.6665ZM9.33335 8.6305L9.30402 8.6505C8.54402 9.19717 8.00002 10.0985 8.00002 11.3332C8.00002 12.5678 8.54402 13.4678 9.30402 14.0145L9.33335 14.0358V8.6305Z" fill="black"/>
</svg>
