<svg width="36" height="36" viewBox="0 0 36 36" fill="none" xmlns="http://www.w3.org/2000/svg">
<path d="M9.17861 25.1936C8.2765 25.3258 6.7915 25.5719 5.80361 24.4511C4.81572 23.3303 3.96142 20.624 3.58595 18.2053C3.03189 14.6404 3.58173 11.636 5.13283 9.74596C6.04689 8.63291 7.24642 7.98815 8.60205 7.88549C9.7629 7.79619 11.4975 8.25041 13.1724 10.9223C14.2214 12.5964 15.0195 14.8204 15.3619 17.0233C15.7753 19.6825 16.1782 22.5203 14.7685 23.5378C13.9732 24.1122 13.4023 24.3112 12.053 24.6325C10.9435 24.8962 10.0814 25.0607 9.17861 25.1936ZM7.57408 27.4809L15.2304 25.9017C15.8773 25.7681 16.3962 26.1238 16.6367 27.1898C17.4256 30.6885 16.2949 34.8749 12.754 34.8749C9.40079 34.8749 7.16626 31.0528 6.80134 28.9982C6.6347 28.0666 6.87236 27.625 7.57408 27.4809ZM23.9477 17.8832C22.5985 17.5633 22.0275 17.3629 21.2323 16.7885C19.8225 15.771 20.2254 12.9332 20.6388 10.274C20.9813 8.07112 21.7793 5.84432 22.8284 4.17299C24.5018 1.50112 26.2364 1.0469 27.3987 1.13619C28.7529 1.23955 29.9531 1.88291 30.8672 2.99596C32.4197 4.88596 32.9695 7.89041 32.4141 11.4553C32.0379 13.874 31.1864 16.5712 30.1929 17.7011C29.1994 18.831 27.7228 18.5758 26.8179 18.4436C25.913 18.3114 25.0566 18.1462 23.9477 17.8832ZM28.426 20.7309L20.7696 19.1517C20.1227 19.0181 19.6038 19.3738 19.3634 20.4398C18.5752 23.9385 19.7058 28.1249 23.2467 28.1249C26.5999 28.1249 28.8345 24.3028 29.1994 22.2482C29.3653 21.3166 29.1277 20.875 28.426 20.7309Z" fill="#7C2309"/>
</svg>
