<svg width="32" height="32" viewBox="0 0 32 32" fill="none" xmlns="http://www.w3.org/2000/svg">
<path d="M7.75016 13.7969C7.88558 13.7969 8.03661 13.8177 8.20328 13.8594C8.36994 13.901 8.5366 13.9583 8.70326 14.0312C8.86992 14.1041 9.03658 14.1718 9.20324 14.2343C9.36991 14.2968 9.52094 14.3593 9.65636 14.4218L9.40636 14.4531C9.32303 14.4635 9.23449 14.4687 9.14075 14.4687C8.96367 14.4687 8.80221 14.4427 8.65639 14.3906C8.51056 14.3385 8.37514 14.2708 8.25015 14.1875C8.12515 14.1041 8.00016 14.0416 7.87516 14C7.75016 13.9583 7.63558 13.9271 7.53142 13.9062C7.42726 13.9062 7.33351 13.9271 7.25018 13.9687C7.16685 14.0104 7.08352 14.0573 7.00019 14.1093C7.00019 14.0677 6.96373 14.0468 6.89082 14.0468C6.96373 13.9739 7.09914 13.9166 7.29705 13.875C7.49496 13.8333 7.646 13.8073 7.75016 13.7969ZM9.85947 14.5C10.2865 14.5 10.6772 14.5729 11.0313 14.7187C10.8855 14.7708 10.7397 14.8124 10.5938 14.8437C10.448 14.8749 10.297 14.8958 10.1407 14.9062C9.93239 14.9062 9.7449 14.8854 9.57823 14.8437C9.63031 14.7604 9.6824 14.7083 9.73448 14.6875C9.78656 14.6666 9.82823 14.6041 9.85947 14.5ZM15.9999 0.000400629C17.4686 0.000400629 18.88 0.193103 20.2342 0.578508C21.5883 0.963913 22.8591 1.50035 24.0465 2.18783C25.234 2.87531 26.3173 3.71383 27.2964 4.70338C28.2756 5.69294 29.1089 6.77103 29.7964 7.93766C30.4838 9.10429 31.0255 10.3751 31.4213 11.75C31.8171 13.125 32.0098 14.5416 31.9994 15.9999C31.9994 17.4686 31.8067 18.88 31.4213 20.2342C31.0359 21.5883 30.4995 22.8591 29.812 24.0465C29.1245 25.234 28.286 26.3173 27.2964 27.2964C26.3069 28.2756 25.2288 29.1089 24.0622 29.7964C22.8955 30.4838 21.6247 31.0255 20.2498 31.4213C18.8748 31.8171 17.4582 32.0098 15.9999 31.9994C14.5312 31.9994 13.1198 31.8067 11.7657 31.4213C10.4115 31.0359 9.14075 30.4995 7.95328 29.812C6.76582 29.1245 5.68252 28.286 4.70338 27.2964C3.72425 26.3069 2.89094 25.2288 2.20346 24.0622C1.51598 22.8955 0.974329 21.6247 0.578508 20.2498C0.182687 18.8748 -0.0100157 17.4582 0.000400629 15.9999C0.000400629 14.5312 0.193103 13.1198 0.578508 11.7657C0.963913 10.4115 1.50035 9.14075 2.18783 7.95328C2.87531 6.76582 3.71383 5.68252 4.70338 4.70338C5.69294 3.72425 6.77103 2.89094 7.93766 2.20346C9.10429 1.51598 10.3751 0.974329 11.75 0.578508C13.125 0.182687 14.5416 -0.0100157 15.9999 0.000400629ZM27.9058 8.67201C27.76 8.44285 27.6141 8.22411 27.4683 8.01578C27.3225 7.80745 27.1714 7.59392 27.0152 7.37518C26.9944 7.46892 26.9683 7.53663 26.9371 7.57829C26.9058 7.61996 26.885 7.71371 26.8746 7.85954C26.8746 7.95328 26.911 8.04182 26.984 8.12515C27.0569 8.20848 27.1506 8.29181 27.2652 8.37514C27.3798 8.45848 27.4944 8.52097 27.6089 8.56264C27.7235 8.6043 27.8225 8.64076 27.9058 8.67201ZM26.8277 7.14081C26.8277 7.22414 26.8121 7.28143 26.7808 7.31268H26.8746C26.9162 7.31268 26.9475 7.31789 26.9683 7.3283L26.8277 7.14081ZM15.9999 29.9995C17.1874 29.9995 18.3488 29.8484 19.4842 29.5464C20.6196 29.2443 21.6924 28.8172 22.7028 28.2652C23.7132 27.7131 24.6507 27.036 25.5152 26.234C26.3798 25.4319 27.135 24.5361 27.7808 23.5466C27.6454 23.2341 27.5152 22.9164 27.3902 22.5935C27.2652 22.2706 27.2027 21.9372 27.2027 21.5935C27.2027 21.2185 27.2183 20.9164 27.2496 20.6873C27.2808 20.4581 27.3173 20.255 27.3589 20.0779C27.4006 19.9008 27.4214 19.7498 27.4214 19.6248C27.4214 19.4998 27.4058 19.3384 27.3746 19.1404C27.3433 18.9425 27.2548 18.729 27.1089 18.4998C26.9631 18.2707 26.7704 17.9478 26.5308 17.5311C26.5413 17.4582 26.5569 17.3592 26.5777 17.2342C26.5985 17.1093 26.6194 16.979 26.6402 16.8436C26.661 16.7082 26.6663 16.5832 26.6558 16.4686C26.6454 16.3541 26.6194 16.2551 26.5777 16.1718C26.3069 16.1405 26.0256 16.0832 25.734 15.9999C25.4423 15.9166 25.1819 15.7916 24.9528 15.6249L25.0465 15.5468C24.9111 15.5781 24.7757 15.6197 24.6403 15.6718C24.5049 15.7239 24.3747 15.7812 24.2497 15.8437C24.1247 15.9062 23.9893 15.9478 23.8434 15.9687C23.6976 15.9895 23.557 16.0103 23.4216 16.0312L23.1716 15.9999L23.2184 15.8905C23.0726 15.9322 22.9164 15.9843 22.7497 16.0468C22.583 16.1093 22.4216 16.1405 22.2653 16.1405C22.1612 16.1405 22.0101 16.1041 21.8122 16.0312C21.6143 15.9582 21.4164 15.8697 21.2185 15.7655C21.0206 15.6614 20.8435 15.5468 20.6873 15.4218C20.531 15.2968 20.4529 15.177 20.4529 15.0624L20.4842 15.0156C20.4321 14.9531 20.3644 14.8958 20.281 14.8437C20.1977 14.7916 20.1196 14.7395 20.0467 14.6875C19.9737 14.6354 19.906 14.5781 19.8435 14.5156C19.781 14.4531 19.755 14.3802 19.7654 14.2968L19.9373 14.1562L19.5779 14.1093L19.4529 13.6406C19.4738 13.6927 19.5206 13.7135 19.5936 13.7031C19.6665 13.6927 19.7238 13.6719 19.7654 13.6406L19.2029 13.3437L19.5936 12.3438C19.4477 11.8021 19.4113 11.3855 19.4842 11.0938C19.5571 10.8022 19.6977 10.5626 19.906 10.3751C20.1144 10.1876 20.3435 10.0001 20.5935 9.8126C20.8435 9.62511 21.0987 9.36991 21.3591 9.047L21.3123 8.85951L22.3435 7.60954L22.5778 7.57829C22.8695 7.57829 23.1976 7.56788 23.5622 7.54705C23.9268 7.52621 24.2965 7.48976 24.6715 7.43767C25.0465 7.38559 25.4163 7.33351 25.7809 7.28143C26.1454 7.22935 26.4788 7.16164 26.7808 7.07831C26.4475 6.68249 26.0986 6.3075 25.734 5.95334C25.3694 5.59919 24.9788 5.26066 24.5622 4.93775C24.4476 4.97942 24.3069 5.03671 24.1403 5.10962C23.9736 5.18253 23.807 5.27628 23.6403 5.39086C23.4736 5.50544 23.3434 5.63044 23.2497 5.76585C23.1559 5.90126 23.0987 6.04188 23.0778 6.18771L23.1716 6.48458C22.9841 6.78665 22.7757 6.97415 22.5466 7.04706C22.3174 7.11997 22.0831 7.16164 21.8435 7.17206C21.6039 7.18247 21.3539 7.18247 21.0935 7.17206C20.8331 7.16164 20.5831 7.20851 20.3435 7.31268L20.0935 6.78144L20.3279 5.87522L20.0623 5.48461L22.7653 4.64088C22.6508 4.34923 22.4633 4.13048 22.2028 3.98465C21.9424 3.83883 21.656 3.76591 21.3435 3.76591V3.60967L22.2185 3.46904C21.2498 2.98989 20.2446 2.62532 19.2029 2.37533C18.1613 2.12534 17.0936 2.00034 15.9999 2.00034C15.0937 2.00034 14.1979 2.08888 13.3125 2.26596C12.4271 2.44303 11.573 2.69823 10.7501 3.03156C9.92718 3.36488 9.13033 3.78154 8.35952 4.28152C7.58871 4.7815 6.88561 5.34399 6.25021 5.96897C6.52104 5.96897 6.72936 6.03667 6.87519 6.17209C7.02102 6.3075 7.15643 6.45854 7.28143 6.6252C7.40642 6.79186 7.53663 6.9429 7.67204 7.07831C7.80745 7.21372 7.98974 7.28664 8.2189 7.29705L8.46889 7.10956L8.43764 6.76582L8.95325 6.03147L8.54701 4.87525C8.5991 4.844 8.67722 4.79192 8.78138 4.71901C8.88555 4.64609 8.97408 4.60963 9.047 4.60963C9.35949 4.60963 9.59907 4.62526 9.76573 4.65651C9.93239 4.68776 10.0782 4.74505 10.2032 4.82838C10.3282 4.91171 10.4376 5.0315 10.5313 5.18774C10.6251 5.34399 10.7709 5.5419 10.9688 5.78147L11.5313 5.34399C11.6355 5.38565 11.8021 5.45336 12.0313 5.54711C12.2604 5.64085 12.4948 5.75543 12.7344 5.89085C12.974 6.02626 13.1771 6.16688 13.3437 6.31271C13.5104 6.45854 13.5989 6.59395 13.6094 6.71895C13.6094 6.87519 13.5521 7.00019 13.4375 7.09393C13.3229 7.18768 13.1719 7.2658 12.9844 7.3283C12.7969 7.3908 12.6042 7.43767 12.4063 7.46892C12.2084 7.50017 12.0105 7.54184 11.8125 7.59392C11.6146 7.646 11.4636 7.69808 11.3594 7.75016C11.2553 7.80225 11.1928 7.89078 11.1719 8.01578L12.0782 8.31265C11.8698 8.48972 11.6459 8.65118 11.4063 8.79701C11.1667 8.94284 10.9167 9.07825 10.6563 9.20324L10.7188 9.46886L9.28137 10.0313V10.4688L9.172 10.5157L9.25012 9.96885L9.18762 9.95322C9.11471 9.95322 9.07304 9.96885 9.06262 10.0001C9.05221 10.0313 9.047 10.0678 9.047 10.1095C9.047 10.1511 9.05742 10.1928 9.07825 10.2345C9.09908 10.2761 9.10429 10.3074 9.09387 10.3282L8.89075 10.2188L8.922 10.2813C8.922 10.3126 8.93763 10.3595 8.96888 10.422C9.00013 10.4845 9.04179 10.5417 9.09387 10.5938C9.14595 10.6459 9.18762 10.698 9.21887 10.7501C9.25012 10.8022 9.27095 10.8282 9.28137 10.8282C9.28137 10.8594 9.26053 10.8907 9.21887 10.9219C9.1772 10.9532 9.12512 10.974 9.06262 10.9844C9.00013 10.9949 8.95846 11.0105 8.93763 11.0313C8.9168 11.0521 8.9168 11.0574 8.93763 11.0469C9.08346 11.0469 9.11471 11.0574 9.03137 11.0782C8.94804 11.099 8.81784 11.1511 8.64076 11.2344C8.46368 11.3178 8.30223 11.4376 8.1564 11.5938C8.01057 11.75 7.92724 11.9792 7.90641 12.2813C7.90641 12.4584 7.91162 12.6302 7.92203 12.7969C7.93245 12.9635 7.92724 13.1354 7.90641 13.3125C7.76058 12.9167 7.54184 12.6146 7.25018 12.4063C6.95852 12.1979 6.60437 12.0938 6.18771 12.0938L5.51586 12.1563L5.84397 12.375C5.66689 12.3542 5.48461 12.3334 5.29711 12.3125C5.10962 12.2917 4.91692 12.2865 4.71901 12.2969C4.5211 12.3073 4.34402 12.349 4.18777 12.4219C4.03153 12.4948 3.87528 12.6042 3.71904 12.75L3.62529 13.4531C3.62529 13.7864 3.6982 14.0573 3.84403 14.2656C3.98986 14.4739 4.24506 14.5833 4.60963 14.5937C4.92213 14.5937 5.22941 14.5468 5.53148 14.4531C5.83356 14.3593 6.13042 14.25 6.42208 14.125C6.32833 14.3541 6.22417 14.5729 6.10959 14.7812C5.99501 14.9895 5.91168 15.2187 5.8596 15.4687L6.06272 15.5624C6.31271 15.3958 6.54187 15.3697 6.75019 15.4843C6.95852 15.5989 7.16164 15.7655 7.35955 15.9843C7.55746 16.203 7.76058 16.427 7.96891 16.6561C8.17723 16.8853 8.40119 17.052 8.64076 17.1561L8.10953 17.4374L6.85957 16.7343C6.86998 16.7551 6.8804 16.802 6.89082 16.8749C6.90123 16.9478 6.89602 16.9634 6.87519 16.9218L6.31271 15.9687C5.97938 15.9582 5.62523 15.9062 5.25024 15.8124C4.87525 15.7187 4.49505 15.5937 4.10965 15.4374C3.72425 15.2812 3.36488 15.1093 3.03156 14.9218C2.69823 14.7343 2.39095 14.5364 2.10971 14.3281L2.00034 15.9999C2.00034 17.2707 2.17221 18.5103 2.51595 19.7185C2.85969 20.9268 3.34405 22.0622 3.96903 23.1247C4.59401 24.1872 5.35961 25.1559 6.26583 26.0309C7.17206 26.9058 8.17723 27.6506 9.28137 28.2652C9.22929 28.0464 9.22408 27.8277 9.26574 27.6089C9.30741 27.3902 9.35949 27.1714 9.42199 26.9527C9.48449 26.734 9.55219 26.5152 9.62511 26.2965C9.69802 26.0777 9.73448 25.8538 9.73448 25.6246C9.73448 25.2913 9.6824 24.9423 9.57823 24.5778C9.47407 24.2132 9.34907 23.8434 9.20324 23.4684C9.05742 23.0934 8.89596 22.7237 8.71888 22.3591C8.54181 21.9945 8.40119 21.6508 8.29702 21.3279C8.19286 21.005 8.10953 20.7029 8.04703 20.4217C7.98453 20.1404 8.01578 19.8956 8.14078 19.6873L7.90641 19.5779C7.96891 19.4321 8.05224 19.2915 8.1564 19.1561C8.26057 19.0207 8.36994 18.8852 8.48452 18.7498C8.5991 18.6144 8.68764 18.4686 8.75013 18.3123C8.81263 18.1561 8.84909 17.9999 8.85951 17.8436C8.85951 17.7394 8.83867 17.6301 8.79701 17.5155C8.75534 17.4009 8.71888 17.2915 8.68764 17.1874L9.01575 17.2655C9.19283 16.8593 9.4324 16.5832 9.73448 16.4374C10.0366 16.2916 10.4167 16.2134 10.8751 16.203C10.9272 16.203 11.0365 16.2239 11.2032 16.2655C11.3698 16.3072 11.5469 16.3645 11.7344 16.4374C11.9219 16.5103 12.099 16.5676 12.2657 16.6093C12.4323 16.6509 12.5573 16.6926 12.6406 16.7343C12.6406 16.8072 12.6823 16.8541 12.7656 16.8749C12.849 16.8957 12.8958 16.9322 12.9063 16.9843L12.875 17.1093C12.9063 17.1197 12.9792 17.1561 13.0938 17.2186C13.2083 17.2811 13.3333 17.3592 13.4687 17.453C13.6042 17.5467 13.7239 17.6301 13.8281 17.703C13.9323 17.7759 14.0052 17.8332 14.0468 17.8749C14.2343 17.8749 14.4895 17.9374 14.8124 18.0623C15.1354 18.1873 15.4895 18.3436 15.8749 18.5311C16.2603 18.7186 16.6405 18.9425 17.0155 19.2029C17.3905 19.4633 17.7447 19.7238 18.078 19.9842C18.4113 20.2446 18.6665 20.505 18.8436 20.7654C19.0207 21.0258 19.1248 21.255 19.1561 21.4529L18.6248 22.0154C18.6665 22.5466 18.63 22.9528 18.5155 23.2341C18.4009 23.5153 18.2238 23.7497 17.9842 23.9372C17.7447 24.1247 17.4686 24.2809 17.1561 24.4059C16.8436 24.5309 16.5051 24.708 16.1405 24.9371C16.1405 25.1455 16.0885 25.3694 15.9843 25.609C15.8801 25.8486 15.7499 26.0777 15.5937 26.2965C15.4374 26.5152 15.2499 26.6975 15.0312 26.8433C14.8124 26.9892 14.5937 27.0621 14.375 27.0621L13.7187 26.5621C13.7396 26.5829 13.7396 26.6194 13.7187 26.6715C13.6979 26.7235 13.6719 26.734 13.6406 26.7027C13.7448 26.9006 13.7708 27.1298 13.7187 27.3902C13.6667 27.6506 13.5781 27.9162 13.4531 28.187C13.3281 28.4579 13.1875 28.7131 13.0313 28.9526C12.875 29.1922 12.7344 29.3953 12.6094 29.562C13.1719 29.7078 13.7344 29.8172 14.2968 29.8901C14.8593 29.963 15.427 29.9995 15.9999 29.9995Z" fill="black"/>
</svg>
