<svg width="32" height="32" viewBox="0 0 32 32" fill="none" xmlns="http://www.w3.org/2000/svg">
<path d="M16 2.6665C17.2638 2.66647 18.5144 2.92307 19.676 3.42077C20.8376 3.91847 21.8861 4.64688 22.7578 5.56186C23.6295 6.47684 24.3063 7.55931 24.7472 8.74367C25.1881 9.92802 25.3839 11.1896 25.3227 12.4518C27.105 13.0778 28.6083 14.3143 29.5664 15.9423C30.5245 17.5703 30.8756 19.4849 30.5575 21.3469C30.2394 23.209 29.2726 24.8984 27.8284 26.1161C26.3842 27.3337 24.5557 28.001 22.6667 27.9998H9.33335C7.44432 28.001 5.61581 27.3337 4.1716 26.1161C2.72739 24.8984 1.76064 23.209 1.44256 21.3469C1.12447 19.4849 1.47556 17.5703 2.43366 15.9423C3.39176 14.3143 4.89505 13.0778 6.67735 12.4518C6.61615 11.1896 6.81193 9.92802 7.25282 8.74367C7.69371 7.55931 8.37053 6.47684 9.24225 5.56186C10.114 4.64688 11.1624 3.91847 12.324 3.42077C13.4857 2.92307 14.7363 2.66647 16 2.6665ZM16 5.33317C15.0973 5.33319 14.2039 5.51655 13.3742 5.87214C12.5444 6.22773 11.7955 6.74814 11.1729 7.40181C10.5502 8.05549 10.0668 8.82881 9.75202 9.67488C9.43719 10.521 9.29748 11.4222 9.34135 12.3238L9.43468 14.3078L7.56268 14.9665C6.37669 15.3859 5.37702 16.2109 4.74015 17.2957C4.10328 18.3806 3.87016 19.6556 4.08196 20.8956C4.29376 22.1356 4.93685 23.2609 5.8977 24.0729C6.85855 24.8848 8.07538 25.3312 9.33335 25.3332H22.6667C23.6485 25.3329 24.6111 25.0615 25.4486 24.5491C26.286 24.0367 26.9658 23.303 27.413 22.429C27.8601 21.555 28.0574 20.5745 27.9829 19.5955C27.9085 18.6165 27.5653 17.6771 26.9911 16.8807C26.4169 16.0844 25.6341 15.4619 24.7288 15.082C23.8235 14.7021 22.8309 14.5794 21.8603 14.7276C20.8898 14.8757 19.9789 15.2888 19.2282 15.9215C18.4774 16.5542 17.9158 17.3818 17.6053 18.3132L15.0747 17.4692C15.6059 15.876 16.6251 14.4905 17.9877 13.5088C19.3503 12.5272 20.9873 11.9992 22.6667 11.9998C22.6667 10.2317 21.9643 8.53603 20.7141 7.28579C19.4638 6.03555 17.7681 5.33317 16 5.33317Z" fill="#392E2E"/>
</svg>
